<svg width="60" height="60" viewBox="0 0 60 60" fill="none" xmlns="http://www.w3.org/2000/svg">
<path d="M0.000488281 30C0.000488281 13.4315 13.4319 0 30.0005 0C46.569 0 60.0005 13.4315 60.0005 30C60.0005 46.5685 46.569 60 30.0005 60C13.4319 60 0.000488281 46.5685 0.000488281 30Z" fill="url(#paint0_linear_240:7066)"/>
<path d="M43.5005 43.5H18.0005C17.1721 43.5 16.5005 42.8284 16.5005 42V16.5H19.5005V40.5H43.5005V43.5ZM24.56 36L22.5005 33.984L29.7845 26.85C30.3579 26.2927 31.2706 26.2927 31.844 26.85L35.1845 30.1215L41.441 24L43.5005 26.016L36.2165 33.15C35.6431 33.7073 34.7304 33.7073 34.157 33.15L30.815 29.877L24.5615 36H24.56Z" fill="white"/>
<defs>
<linearGradient id="paint0_linear_240:7066" x1="60.0005" y1="60" x2="5.01224" y2="-4.28684" gradientUnits="userSpaceOnUse">
<stop stop-color="#031B4B"/>
<stop offset="1" stop-color="#28437B"/>
</linearGradient>
</defs>
</svg>
