<svg width="20" height="20" viewBox="0 0 20 20" fill="none" xmlns="http://www.w3.org/2000/svg">
<path d="M10.0003 18.3333C7.78959 18.3353 5.66881 17.4579 4.10558 15.8947C2.54234 14.3315 1.66501 12.2107 1.667 9.99996V9.83329C1.73515 6.49347 3.79016 3.51675 6.88896 2.26917C9.98777 1.02159 13.5321 1.74403 15.8953 4.10496C18.2807 6.48836 18.9946 10.0744 17.7039 13.1896C16.4133 16.3049 13.3724 18.3353 10.0003 18.3333ZM10.0003 11.175L12.1587 13.3333L13.3337 12.1583L11.1753 9.99996L13.3337 7.84162L12.1587 6.66662L10.0003 8.82496L7.842 6.66662L6.667 7.84162L8.82533 9.99996L6.667 12.1583L7.842 13.3333L10.0003 11.1758V11.175Z" fill="#D91E18"/>
</svg>
