<svg width="60" height="60" viewBox="0 0 60 60" fill="none" xmlns="http://www.w3.org/2000/svg">
<path d="M0.000488281 30C0.000488281 13.4315 13.4319 0 30.0005 0C46.569 0 60.0005 13.4315 60.0005 30C60.0005 46.5685 46.569 60 30.0005 60C13.4319 60 0.000488281 46.5685 0.000488281 30Z" fill="url(#paint0_linear_240:6967)"/>
<path d="M30.077 44.9235C22.0896 44.9166 15.5086 38.6518 15.1087 30.6745C14.7088 22.6971 20.6303 15.8056 28.577 15V21.06C24.0629 21.8229 20.8428 25.8558 21.0982 30.4268C21.3535 34.9977 25.0027 38.647 29.5737 38.9023C34.1446 39.1576 38.1776 35.9376 38.9405 31.4235H45.0005C44.2201 39.0833 37.7749 44.9132 30.0755 44.9235H30.077ZM45.002 28.4235H38.942C38.3036 24.652 35.3485 21.6976 31.577 21.06V15C38.6676 15.726 44.2737 21.3315 45.0005 28.422L45.002 28.4235Z" fill="white"/>
<defs>
<linearGradient id="paint0_linear_240:6967" x1="60.0005" y1="60" x2="5.01224" y2="-4.28684" gradientUnits="userSpaceOnUse">
<stop stop-color="#031B4B"/>
<stop offset="1" stop-color="#28437B"/>
</linearGradient>
</defs>
</svg>
