<svg width="24" height="24" viewBox="0 0 24 24" fill="none" xmlns="http://www.w3.org/2000/svg">
<g clip-path="url(#clip0_267:52907)">
<path d="M14.1205 14.12C13.8458 14.4148 13.5146 14.6512 13.1466 14.8151C12.7786 14.9791 12.3814 15.0673 11.9786 15.0744C11.5758 15.0815 11.1757 15.0074 10.8021 14.8565C10.4285 14.7056 10.0892 14.4811 9.80433 14.1962C9.51946 13.9113 9.29488 13.572 9.144 13.1984C8.99311 12.8249 8.91901 12.4247 8.92612 12.0219C8.93323 11.6191 9.0214 11.2219 9.18536 10.8539C9.34933 10.4859 9.58574 10.1547 9.88049 9.88003M17.9405 17.94C16.2311 19.243 14.1496 19.9649 12.0005 20C5.00049 20 1.00049 12 1.00049 12C2.24438 9.68192 3.96962 7.65663 6.06049 6.06003L17.9405 17.94ZM9.90049 4.24002C10.5888 4.0789 11.2936 3.99836 12.0005 4.00003C19.0005 4.00003 23.0005 12 23.0005 12C22.3935 13.1356 21.6695 14.2048 20.8405 15.19L9.90049 4.24002Z" stroke="#111828" stroke-width="2" stroke-linecap="round" stroke-linejoin="round"/>
<path d="M1.00049 1L23.0005 23" stroke="#111828" stroke-width="2" stroke-linecap="round" stroke-linejoin="round"/>
</g>
<defs>
<clipPath id="clip0_267:52907">
<rect width="24" height="24" fill="white" transform="translate(0.000488281)"/>
</clipPath>
</defs>
</svg>
