<svg width="24" height="24" viewBox="0 0 24 24" fill="none" xmlns="http://www.w3.org/2000/svg">
<path d="M2.00244 12.002C2.0036 16.9214 5.58084 21.11 10.4394 21.881V14.892H7.90244V12.002H10.4424V9.80198C10.3289 8.75952 10.685 7.72058 11.4141 6.96692C12.1432 6.21325 13.1698 5.823 14.2154 5.90198C14.966 5.9141 15.7146 5.98095 16.4554 6.10198V8.56098H15.1914C14.7563 8.50399 14.3188 8.64771 14.0022 8.95165C13.6856 9.25559 13.5242 9.68687 13.5634 10.124V12.002H16.3344L15.8914 14.893H13.5634V21.881C18.8179 21.0506 22.5025 16.2518 21.9479 10.9611C21.3934 5.67035 16.7937 1.73991 11.4813 2.01716C6.1688 2.29441 2.00329 6.68229 2.00244 12.002Z" fill="#030E24"/>
</svg>
