<svg width="24" height="24" viewBox="0 0 24 24" fill="none" xmlns="http://www.w3.org/2000/svg">
<path d="M18.0005 22H6.00049C4.89592 22 4.00049 21.1046 4.00049 20V4.00002C4.00049 2.89545 4.89592 2.00002 6.00049 2.00002H13.0005C13.0095 1.99886 13.0185 1.99886 13.0275 2.00002H13.0335C13.0429 2.00298 13.0526 2.00498 13.0625 2.00602C13.1507 2.01167 13.2377 2.02882 13.3215 2.05702H13.3365H13.3515H13.3635C13.3819 2.06994 13.3993 2.08432 13.4155 2.10002C13.5244 2.14844 13.6237 2.2162 13.7085 2.30002L19.7085 8.30002C19.7923 8.3848 19.8601 8.48407 19.9085 8.59302C19.9175 8.61502 19.9245 8.63602 19.9315 8.65902L19.9415 8.68702C19.9694 8.77041 19.9859 8.8572 19.9905 8.94502C19.9914 8.95498 19.9937 8.96476 19.9975 8.97402V8.98002C19.9991 8.98657 20.0001 8.99327 20.0005 9.00002V20C20.0005 20.5305 19.7898 21.0392 19.4147 21.4142C19.0396 21.7893 18.5309 22 18.0005 22ZM13.0005 4.00002V9.00002H18.0005L13.0005 4.00002Z" fill="#111828"/>
</svg>
