<svg width="60" height="60" viewBox="0 0 60 60" fill="none" xmlns="http://www.w3.org/2000/svg">
<path d="M0.000488281 30C0.000488281 13.4315 13.4319 0 30.0005 0C46.569 0 60.0005 13.4315 60.0005 30C60.0005 46.5685 46.569 60 30.0005 60C13.4319 60 0.000488281 46.5685 0.000488281 30Z" fill="url(#paint0_linear_240:6893)"/>
<path d="M30.0005 15C27.0338 15 24.1337 15.8797 21.6669 17.528C19.2002 19.1762 17.2776 21.5189 16.1423 24.2597C15.007 27.0006 14.7099 30.0166 15.2887 32.9264C15.8675 35.8361 17.2961 38.5088 19.3939 40.6066C21.4917 42.7044 24.1644 44.133 27.0741 44.7118C29.9839 45.2906 32.9999 44.9935 35.7407 43.8582C38.4816 42.7229 40.8243 40.8003 42.4725 38.3336C44.1208 35.8668 45.0005 32.9667 45.0005 30C45.0005 28.0302 44.6125 26.0796 43.8587 24.2597C43.1049 22.4399 42 20.7863 40.6071 19.3934C39.2142 18.0005 37.5606 16.8956 35.7407 16.1418C33.9209 15.388 31.9703 15 30.0005 15ZM30.0005 18C30.9044 18.0059 31.8048 18.1115 32.6855 18.315C32.4248 18.9036 32.0229 19.4188 31.5155 19.815C31.1855 20.07 30.8255 20.28 30.4655 20.505C29.3258 21.0661 28.3649 21.9335 27.6905 23.01C26.9516 24.5499 26.6309 26.257 26.7605 27.96C26.7605 30 26.7605 31.2 25.3355 32.265C23.2805 33.87 20.1455 32.97 18.1955 32.16C18.068 31.447 18.0028 30.7243 18.0005 30C18.0005 26.8174 19.2648 23.7652 21.5152 21.5147C23.7657 19.2643 26.8179 18 30.0005 18ZM37.3355 39.48C37.076 38.881 36.7596 38.3084 36.3905 37.77C36.2255 37.53 36.0605 37.29 35.9105 37.035C35.3255 36.015 35.5355 35.535 36.4805 34.035L36.6305 33.78C37.2392 32.6639 37.5395 31.4057 37.5005 30.135C37.499 29.6319 37.5442 29.1297 37.6355 28.635C37.8755 27.54 40.2005 27.24 41.6405 27.135C42.2225 29.3978 42.1261 31.7818 41.3633 33.9902C40.6005 36.1985 39.205 38.1338 37.3505 39.555L37.3355 39.48Z" fill="white"/>
<defs>
<linearGradient id="paint0_linear_240:6893" x1="60.0005" y1="60" x2="5.01224" y2="-4.28684" gradientUnits="userSpaceOnUse">
<stop stop-color="#031B4B"/>
<stop offset="1" stop-color="#28437B"/>
</linearGradient>
</defs>
</svg>
