<svg width="60" height="60" viewBox="0 0 60 60" fill="none" xmlns="http://www.w3.org/2000/svg">
<path d="M0.000488281 30C0.000488281 13.4315 13.4319 0 30.0005 0C46.569 0 60.0005 13.4315 60.0005 30C60.0005 46.5685 46.569 60 30.0005 60C13.4319 60 0.000488281 46.5685 0.000488281 30Z" fill="url(#paint0_linear_240:6775)"/>
<path fill-rule="evenodd" clip-rule="evenodd" d="M41.1996 34.3218C40.4839 34.439 39.7493 34.5 39.0005 34.5C31.5446 34.5 25.5005 28.4558 25.5005 21C25.5005 20.2511 25.5615 19.5165 25.6787 18.8008C25.8769 17.5912 26.2359 16.4356 26.7329 15.3569C25.4409 15.6439 24.2116 16.0976 23.0687 16.6942C18.2737 19.1973 15.0005 24.2164 15.0005 29.9999C15.0005 38.2842 21.7162 44.9999 30.0005 44.9999C35.784 44.9999 40.8031 41.7267 43.3062 36.9318C43.9028 35.7889 44.3565 34.5596 44.6435 33.2676C43.5648 33.7646 42.4092 34.1236 41.1996 34.3218Z" fill="white"/>
<defs>
<linearGradient id="paint0_linear_240:6775" x1="60.0005" y1="60" x2="5.01224" y2="-4.28684" gradientUnits="userSpaceOnUse">
<stop stop-color="#031B4B"/>
<stop offset="1" stop-color="#28437B"/>
</linearGradient>
</defs>
</svg>
