<svg width="24" height="24" viewBox="0 0 24 24" fill="none" xmlns="http://www.w3.org/2000/svg">
<path d="M12.0024 21.041C9.54244 21.041 9.25244 21.028 8.29244 20.986C7.54381 20.9614 6.80488 20.8092 6.10744 20.536C4.90075 20.0664 3.94658 19.1119 3.47744 17.905C3.21475 17.205 3.07306 16.4655 3.05844 15.718C3.00244 14.76 3.00244 14.446 3.00244 12.005C3.00244 9.538 3.01544 9.25 3.05844 8.295C3.07338 7.54853 3.21506 6.81001 3.47744 6.111C3.94607 4.90253 4.90179 3.94718 6.11044 3.479C6.80909 3.21521 7.54779 3.07315 8.29444 3.059C9.24944 3.005 9.56344 3.005 12.0024 3.005C14.4824 3.005 14.7674 3.018 15.7124 3.059C16.461 3.07327 17.2017 3.21531 17.9024 3.479C19.1107 3.94771 20.0663 4.90288 20.5354 6.111C20.8026 6.8202 20.945 7.57026 20.9564 8.328C21.0124 9.28601 21.0124 9.59901 21.0124 12.039C21.0124 14.479 20.9984 14.799 20.9564 15.746C20.9416 16.4942 20.7995 17.2344 20.5364 17.935C20.0661 19.1427 19.1105 20.0976 17.9024 20.567C17.2027 20.8292 16.4636 20.9709 15.7164 20.986C14.7614 21.041 14.4484 21.041 12.0024 21.041ZM11.9684 4.588C9.52244 4.588 9.26844 4.6 8.31344 4.643C7.74343 4.65056 7.17892 4.75575 6.64444 4.954C5.85519 5.25601 5.23067 5.878 4.92544 6.666C4.72565 7.2063 4.62045 7.77698 4.61444 8.353C4.56144 9.322 4.56144 9.576 4.56144 12.005C4.56144 14.405 4.57044 14.696 4.61444 15.659C4.62339 16.2292 4.72854 16.7938 4.92544 17.329C5.23112 18.1165 5.85554 18.738 6.64444 19.04C7.17856 19.2396 7.74329 19.3448 8.31344 19.351C9.28144 19.407 9.53644 19.407 11.9684 19.407C14.4214 19.407 14.6754 19.395 15.6224 19.351C16.1928 19.3441 16.7578 19.2389 17.2924 19.04C18.0769 18.7354 18.6974 18.1153 19.0024 17.331C19.2018 16.7903 19.307 16.2193 19.3134 15.643H19.3244C19.3674 14.687 19.3674 14.432 19.3674 11.989C19.3674 9.54601 19.3564 9.289 19.3134 8.334C19.3045 7.76446 19.1993 7.20052 19.0024 6.666C18.6981 5.88058 18.0775 5.2593 17.2924 4.954C16.7579 4.75475 16.1929 4.64953 15.6224 4.643C14.6554 4.588 14.4024 4.588 11.9684 4.588ZM12.0024 16.624C10.1324 16.6252 8.44586 15.4997 7.7293 13.7725C7.01275 12.0452 7.40735 10.0563 8.72907 8.73347C10.0508 7.4106 12.0393 7.01428 13.7672 7.72934C15.4951 8.4444 16.622 10.13 16.6224 12C16.6197 14.5511 14.5535 16.619 12.0024 16.624ZM12.0024 8.998C10.3456 8.998 9.00244 10.3412 9.00244 11.998C9.00244 13.6549 10.3456 14.998 12.0024 14.998C13.6593 14.998 15.0024 13.6549 15.0024 11.998C14.9986 10.3427 13.6577 9.00185 12.0024 8.998ZM16.8024 8.28501C16.2079 8.2828 15.7273 7.79959 15.7284 7.20501C15.7295 6.61043 16.2119 6.12901 16.8064 6.12901C17.401 6.12901 17.8833 6.61042 17.8844 7.205C17.8847 7.49187 17.7707 7.76703 17.5677 7.96968C17.3647 8.17234 17.0893 8.2858 16.8024 8.28501Z" fill="#111828"/>
</svg>
