<svg width="24" height="24" viewBox="0 0 24 24" fill="none" xmlns="http://www.w3.org/2000/svg">
<path d="M13.0005 21H9.00049V9H13.0005V11C13.8531 9.91525 15.1461 9.26857 16.5255 9.237C19.0061 9.25077 21.0077 11.2694 21.0005 13.75V21H17.0005V14.25C16.8405 13.1326 15.8823 12.3036 14.7535 12.306C14.2598 12.3216 13.7937 12.5378 13.4629 12.9046C13.1321 13.2715 12.9651 13.7573 13.0005 14.25V21ZM7.00049 21H3.00049V9H7.00049V21ZM5.00049 7C3.89592 7 3.00049 6.10457 3.00049 5C3.00049 3.89543 3.89592 3 5.00049 3C6.10506 3 7.00049 3.89543 7.00049 5C7.00049 5.53043 6.78977 6.03914 6.4147 6.41421C6.03963 6.78929 5.53092 7 5.00049 7Z" fill="#111828"/>
</svg>
