<svg width="24" height="24" viewBox="0 0 24 24" fill="none" xmlns="http://www.w3.org/2000/svg">
<path d="M6.00046 22C4.31459 21.9996 2.80996 20.9422 2.23836 19.3562C1.66676 17.7702 2.15092 15.9961 3.44892 14.9203C4.74692 13.8445 6.58009 13.698 8.03246 14.554L14.5545 8.03199C13.5341 6.29851 13.9618 4.07679 15.5526 2.84588C17.1435 1.61498 19.4014 1.75882 20.8232 3.18164C22.2451 4.60446 22.3873 6.86249 21.1553 8.45248C19.9232 10.0425 17.7012 10.4685 15.9685 9.44699L9.44746 15.968C10.1769 17.2049 10.1874 18.7379 9.47497 19.9846C8.76251 21.2314 7.43642 22.0006 6.00046 22ZM6.00046 16C4.89589 16 4.00046 16.8954 4.00046 18C4.00046 19.1046 4.89589 20 6.00046 20C7.10503 20 8.00046 19.1046 8.00046 18C8.00046 16.8954 7.10503 16 6.00046 16ZM18.0005 3.99999C16.9079 4.0011 16.0183 4.87884 16.0027 5.97133C15.987 7.06382 16.851 7.96669 17.9431 7.99911C19.0353 8.03153 19.9513 7.18149 20.0005 6.08999V6.48999V5.99999C20.0005 4.89542 19.105 3.99999 18.0005 3.99999Z" fill="#111828"/>
</svg>
