<svg width="60" height="60" viewBox="0 0 60 60" fill="none" xmlns="http://www.w3.org/2000/svg">
<path d="M0.000488281 30C0.000488281 13.4315 13.4319 0 30.0005 0C46.569 0 60.0005 13.4315 60.0005 30C60.0005 46.5685 46.569 60 30.0005 60C13.4319 60 0.000488281 46.5685 0.000488281 30Z" fill="url(#paint0_linear_240:6942)"/>
<path d="M42.0005 42H18.0005C16.3963 42.048 15.0551 40.79 15.0005 39.186V20.8125C15.0551 19.2087 16.3965 17.9511 18.0005 18H42.0005C43.6045 17.9511 44.9459 19.2087 45.0005 20.8125V39.1875C44.9451 40.7909 43.6041 42.048 42.0005 42ZM18.0005 21V38.9835L42.0005 39V21.0165L18.0005 21ZM32.1455 36H21.0005C21.1108 34.7581 21.6985 33.6073 22.64 32.79C23.6882 31.75 25.0967 31.1538 26.573 31.125C28.0493 31.1538 29.4578 31.75 30.506 32.79C31.4472 33.6075 32.0349 34.7582 32.1455 36ZM39.0005 34.5H34.5005V31.5H39.0005V34.5ZM26.573 30C25.7691 30.0279 24.9897 29.7208 24.4209 29.152C23.8521 28.5833 23.5451 27.8039 23.573 27C23.5455 26.1962 23.8527 25.4171 24.4214 24.8484C24.9901 24.2797 25.7692 23.9725 26.573 24C27.3767 23.9725 28.1559 24.2797 28.7246 24.8484C29.2932 25.4171 29.6005 26.1962 29.573 27C29.6009 27.8039 29.2938 28.5833 28.7251 29.152C28.1563 29.7208 27.3769 30.0279 26.573 30ZM39.0005 28.5H33.0005V25.5H39.0005V28.5Z" fill="white"/>
<defs>
<linearGradient id="paint0_linear_240:6942" x1="60.0005" y1="60" x2="5.01224" y2="-4.28684" gradientUnits="userSpaceOnUse">
<stop stop-color="#031B4B"/>
<stop offset="1" stop-color="#28437B"/>
</linearGradient>
</defs>
</svg>
