<svg width="20" height="20" viewBox="0 0 20 20" fill="none" xmlns="http://www.w3.org/2000/svg">
<path d="M7.28561 7.23491C6.39133 7.99478 6.06362 9.38059 6.8358 10.4923C7.55839 11.5327 8.46861 12.4427 9.50874 13.165C10.6205 13.937 12.0063 13.6092 12.7661 12.7149L12.7745 12.7188C13.745 13.1684 14.7758 13.4765 15.8338 13.6336V15.8333L15.8329 15.8333L15.8305 15.8333C9.18508 15.8427 4.16005 10.7593 4.16716 4.16966V4.16667H6.36663L6.36677 4.16764C6.52382 5.22554 6.83183 6.25545 7.28143 7.2259L7.28561 7.23491ZM15.8329 17.5H16.6672C17.1274 17.5 17.5005 17.1269 17.5005 16.6667V12.9148C17.5005 12.5018 17.198 12.1511 16.7895 12.0905L16.0777 11.9848C15.1774 11.8512 14.3009 11.5891 13.4751 11.2065L12.8477 10.9159C12.4841 10.7475 12.0522 10.8617 11.8193 11.1877L11.5353 11.5854C11.2864 11.9339 10.8111 12.0403 10.4594 11.796C9.58245 11.1871 8.81388 10.4187 8.20467 9.54158C7.96033 9.18979 8.06678 8.71448 8.41535 8.46555L8.8128 8.18172C9.1389 7.94884 9.25308 7.51684 9.08463 7.15325L8.79369 6.52527C8.41111 5.6995 8.14901 4.82312 8.01537 3.92291L7.90969 3.21097C7.84904 2.80247 7.49836 2.5 7.08539 2.5H3.33383C2.87359 2.5 2.5005 2.8731 2.5005 3.33333V4.16786C2.4924 11.6732 8.25902 17.5107 15.8329 17.5Z" fill="#111828"/>
</svg>
