<svg width="60" height="60" viewBox="0 0 60 60" fill="none" xmlns="http://www.w3.org/2000/svg">
<path d="M0.000488281 30C0.000488281 13.4315 13.4319 0 30.0005 0C46.569 0 60.0005 13.4315 60.0005 30C60.0005 46.5685 46.569 60 30.0005 60C13.4319 60 0.000488281 46.5685 0.000488281 30Z" fill="url(#paint0_linear_240:7121)"/>
<path d="M42.0005 25.5V22.5C42.0005 20.85 40.6505 19.5 39.0005 19.5H34.5005C34.5005 17.01 32.4905 15 30.0005 15C27.5105 15 25.5005 17.01 25.5005 19.5H21.0005C19.3505 19.5 18.0005 20.85 18.0005 22.5V25.5C15.5105 25.5 13.5005 27.51 13.5005 30C13.5005 32.49 15.5105 34.5 18.0005 34.5V40.5C18.0005 42.15 19.3505 43.5 21.0005 43.5H39.0005C40.6505 43.5 42.0005 42.15 42.0005 40.5V34.5C44.4905 34.5 46.5005 32.49 46.5005 30C46.5005 27.51 44.4905 25.5 42.0005 25.5ZM23.2505 29.25C23.2505 28.005 24.2555 27 25.5005 27C26.7455 27 27.7505 28.005 27.7505 29.25C27.7505 30.495 26.7455 31.5 25.5005 31.5C24.2555 31.5 23.2505 30.495 23.2505 29.25ZM36.0005 37.5H24.0005V34.5H36.0005V37.5ZM34.5005 31.5C33.2555 31.5 32.2505 30.495 32.2505 29.25C32.2505 28.005 33.2555 27 34.5005 27C35.7455 27 36.7505 28.005 36.7505 29.25C36.7505 30.495 35.7455 31.5 34.5005 31.5Z" fill="white"/>
<defs>
<linearGradient id="paint0_linear_240:7121" x1="60.0005" y1="60" x2="5.01224" y2="-4.28684" gradientUnits="userSpaceOnUse">
<stop stop-color="#031B4B"/>
<stop offset="1" stop-color="#28437B"/>
</linearGradient>
</defs>
</svg>
