<svg width="24" height="24" viewBox="0 0 24 24" fill="none" xmlns="http://www.w3.org/2000/svg">
<path d="M18.6775 19.607L12.9625 13.891C10.4201 15.6985 6.91691 15.2564 4.90334 12.8739C2.88978 10.4915 3.03763 6.96361 5.24347 4.75802C7.44873 2.55147 10.977 2.40298 13.3599 4.41644C15.7427 6.42989 16.1851 9.93347 14.3775 12.476L20.0925 18.192L18.6785 19.606L18.6775 19.607ZM9.48547 5.00001C7.58917 4.99958 5.95316 6.3307 5.56794 8.18745C5.18273 10.0442 6.15418 11.9163 7.89415 12.6703C9.63411 13.4242 11.6644 12.8528 12.7557 11.3021C13.8471 9.75129 13.6995 7.64734 12.4025 6.26402L13.0075 6.86402L12.3255 6.18402L12.3135 6.17202C11.5653 5.4192 10.5469 4.99715 9.48547 5.00001Z" fill="#111828"/>
</svg>
