<svg width="60" height="60" viewBox="0 0 60 60" fill="none" xmlns="http://www.w3.org/2000/svg">
<path d="M0.000488281 30C0.000488281 13.4315 13.4319 0 30.0005 0C46.569 0 60.0005 13.4315 60.0005 30C60.0005 46.5685 46.569 60 30.0005 60C13.4319 60 0.000488281 46.5685 0.000488281 30Z" fill="url(#paint0_linear_240:6805)"/>
<path d="M30.0006 44.775C29.4764 44.7832 28.9593 44.6539 28.5006 44.4L28.0506 44.145C24.5455 42.1619 21.6295 39.2842 19.6003 35.8056C17.5711 32.327 16.5015 28.3722 16.5006 24.345V24.135C16.4959 23.6038 16.6322 23.0809 16.8958 22.6197C17.1593 22.1585 17.5406 21.7756 18.0006 21.51L28.5006 15.6C28.9567 15.3367 29.474 15.1981 30.0006 15.1981C30.5272 15.1981 31.0446 15.3367 31.5006 15.6L42.0006 21.51C42.4606 21.7756 42.8419 22.1585 43.1055 22.6197C43.369 23.0809 43.5054 23.6038 43.5006 24.135V24.345C43.4967 28.3751 42.4226 32.332 40.3879 35.8108C38.3533 39.2897 35.4313 42.1658 31.9206 44.145L31.4706 44.4C31.0208 44.6489 30.5146 44.778 30.0006 44.775Z" fill="white"/>
<defs>
<linearGradient id="paint0_linear_240:6805" x1="60.0005" y1="60" x2="5.01224" y2="-4.28684" gradientUnits="userSpaceOnUse">
<stop stop-color="#031B4B"/>
<stop offset="1" stop-color="#28437B"/>
</linearGradient>
</defs>
</svg>
