<svg width="60" height="60" viewBox="0 0 60 60" fill="none" xmlns="http://www.w3.org/2000/svg">
<path d="M0.000488281 30C0.000488281 13.4315 13.4319 0 30.0005 0C46.569 0 60.0005 13.4315 60.0005 30C60.0005 46.5685 46.569 60 30.0005 60C13.4319 60 0.000488281 46.5685 0.000488281 30Z" fill="url(#paint0_linear_240:7022)"/>
<path d="M38.3404 43.5C38.1005 43.501 37.8639 43.4444 37.6504 43.335L30.0004 39.33L22.3504 43.335C22.102 43.4656 21.8219 43.5239 21.542 43.5033C21.2621 43.4827 20.9936 43.3839 20.767 43.2183C20.5404 43.0527 20.3649 42.8268 20.2603 42.5663C20.1557 42.3059 20.1263 42.0213 20.1754 41.745L21.6754 33.3L15.4954 27.3C15.3026 27.1076 15.1658 26.8663 15.0997 26.602C15.0337 26.3378 15.0408 26.0605 15.1204 25.8C15.2073 25.5334 15.3672 25.2965 15.582 25.1162C15.7968 24.9359 16.0578 24.8195 16.3354 24.78L24.8854 23.535L28.6504 15.84C28.7732 15.5864 28.965 15.3725 29.2037 15.2229C29.4425 15.0732 29.7186 14.9938 30.0004 14.9938C30.2822 14.9938 30.5582 15.0732 30.797 15.2229C31.0358 15.3725 31.2275 15.5864 31.3504 15.84L35.1604 23.52L43.7104 24.765C43.988 24.8045 44.249 24.9209 44.4638 25.1012C44.6785 25.2815 44.8384 25.5184 44.9254 25.785C45.005 26.0455 45.0121 26.3228 44.946 26.587C44.88 26.8513 44.7432 27.0926 44.5504 27.285L38.3704 33.285L39.8704 41.73C39.9239 42.0112 39.8959 42.3019 39.7896 42.5677C39.6833 42.8335 39.5031 43.0633 39.2704 43.23C38.9988 43.4203 38.6717 43.5153 38.3404 43.5Z" fill="white"/>
<defs>
<linearGradient id="paint0_linear_240:7022" x1="60.0005" y1="60" x2="5.01224" y2="-4.28684" gradientUnits="userSpaceOnUse">
<stop stop-color="#031B4B"/>
<stop offset="1" stop-color="#28437B"/>
</linearGradient>
</defs>
</svg>
