<svg width="24" height="24" viewBox="0 0 24 24" fill="none" xmlns="http://www.w3.org/2000/svg">
<path d="M9.9903 17.2589C11.3253 17.2589 12.4075 16.3032 12.4075 14.8417V4H15.3065C15.1439 5.97723 17.1094 7.88718 19.2771 7.8435V10.5695C17.4233 10.5695 15.8469 9.78561 15.2982 9.35059V14.8417C15.2982 17.2589 13.3966 20 9.9903 20C6.58397 20 4.72388 17.2589 4.72388 14.8417C4.72388 11.43 8.33431 9.45136 10.7256 9.93497V12.7115C10.6053 12.669 10.2951 12.6061 10.0308 12.6061C8.68474 12.5564 7.57308 13.6482 7.57308 14.8417C7.57308 16.1767 8.6553 17.2589 9.9903 17.2589Z" fill="#111828"/>
</svg>
