<svg width="24" height="24" viewBox="0 0 24 24" fill="none" xmlns="http://www.w3.org/2000/svg">
<path d="M19.9955 6.68799C20.8919 6.15208 21.5627 5.30823 21.8825 4.31399C21.0402 4.81379 20.1185 5.16587 19.1575 5.35499C17.8251 3.94552 15.714 3.60251 14.0039 4.51764C12.2938 5.43277 11.408 7.37948 11.8415 9.26999C8.39111 9.09676 5.17647 7.4669 2.9975 4.78599C1.86034 6.74741 2.44146 9.25477 4.3255 10.516C3.64421 10.4941 2.97803 10.3096 2.3825 9.97799C2.3825 9.99599 2.3825 10.014 2.3825 10.032C2.3829 12.0751 3.82288 13.8351 5.8255 14.24C5.19357 14.4119 4.53071 14.4372 3.8875 14.314C4.4507 16.0613 6.06106 17.2583 7.8965 17.294C6.37634 18.4871 4.49898 19.1342 2.5665 19.131C2.22397 19.1315 1.88171 19.1118 1.5415 19.072C3.50389 20.333 5.78787 21.0023 8.1205 21C11.3658 21.0223 14.4845 19.7429 16.7792 17.448C19.0739 15.1531 20.3531 12.0342 20.3305 8.78899C20.3305 8.60299 20.3262 8.41799 20.3175 8.23399C21.158 7.62659 21.8833 6.87414 22.4595 6.01199C21.6765 6.35905 20.846 6.58691 19.9955 6.68799Z" fill="#111828"/>
</svg>
