<svg width="60" height="60" viewBox="0 0 60 60" fill="none" xmlns="http://www.w3.org/2000/svg">
<path d="M0.000488281 30C0.000488281 13.4315 13.4319 0 30.0005 0C46.569 0 60.0005 13.4315 60.0005 30C60.0005 46.5685 46.569 60 30.0005 60C13.4319 60 0.000488281 46.5685 0.000488281 30Z" fill="url(#paint0_linear_240:6992)"/>
<path d="M18.0005 40.5H15.0005C15.0005 35.5294 19.0299 31.5 24.0005 31.5C28.9711 31.5 33.0005 35.5294 33.0005 40.5H30.0005H24.0005H18.0005ZM35.9915 35.115L31.9325 31.065L34.0505 28.938L35.9885 30.876L42.4385 24.438L44.5565 26.562L35.9885 35.112L35.9915 35.115ZM24.0005 30C20.6868 30 18.0005 27.3137 18.0005 24C18.0005 20.6863 20.6868 18 24.0005 18C27.3142 18 30.0005 20.6863 30.0005 24C29.9964 27.312 27.3125 29.9959 24.0005 30Z" fill="white"/>
<defs>
<linearGradient id="paint0_linear_240:6992" x1="60.0005" y1="60" x2="5.01224" y2="-4.28684" gradientUnits="userSpaceOnUse">
<stop stop-color="#031B4B"/>
<stop offset="1" stop-color="#28437B"/>
</linearGradient>
</defs>
</svg>
