<svg width="60" height="60" viewBox="0 0 60 60" fill="none" xmlns="http://www.w3.org/2000/svg">
<path d="M0.000488281 30C0.000488281 13.4315 13.4319 0 30.0005 0C46.569 0 60.0005 13.4315 60.0005 30C60.0005 46.5685 46.569 60 30.0005 60C13.4319 60 0.000488281 46.5685 0.000488281 30Z" fill="url(#paint0_linear_240:6844)"/>
<path d="M30.0005 32.25C31.2431 32.25 32.2505 31.2426 32.2505 30C32.2505 28.7574 31.2431 27.75 30.0005 27.75C28.7578 27.75 27.7505 28.7574 27.7505 30C27.7505 31.2426 28.7578 32.25 30.0005 32.25Z" fill="white"/>
<path d="M44.8056 29.2501C43.8456 27.5851 38.5656 19.2301 29.5956 19.5001C21.3006 19.7101 16.5006 27.0001 15.1956 29.2501C15.0639 29.4781 14.9946 29.7367 14.9946 30.0001C14.9946 30.2634 15.0639 30.522 15.1956 30.7501C16.1406 32.3851 21.1956 40.5001 30.0306 40.5001H30.4056C38.7006 40.2901 43.5156 33.0001 44.8056 30.7501C44.9372 30.522 45.0066 30.2634 45.0066 30.0001C45.0066 29.7367 44.9372 29.4781 44.8056 29.2501ZM30.0006 35.2501C28.9622 35.2501 27.9472 34.9421 27.0838 34.3653C26.2205 33.7884 25.5476 32.9685 25.1502 32.0091C24.7529 31.0498 24.6489 29.9942 24.8515 28.9758C25.054 27.9574 25.5541 27.022 26.2883 26.2877C27.0225 25.5535 27.958 25.0535 28.9764 24.8509C29.9948 24.6484 31.0504 24.7523 32.0097 25.1497C32.969 25.547 33.7889 26.22 34.3658 27.0833C34.9427 27.9467 35.2506 28.9617 35.2506 30.0001C35.2506 31.3924 34.6975 32.7278 33.7129 33.7124C32.7283 34.6969 31.393 35.2501 30.0006 35.2501Z" fill="white"/>
<defs>
<linearGradient id="paint0_linear_240:6844" x1="60.0005" y1="60" x2="5.01224" y2="-4.28684" gradientUnits="userSpaceOnUse">
<stop stop-color="#031B4B"/>
<stop offset="1" stop-color="#28437B"/>
</linearGradient>
</defs>
</svg>
