<svg width="60" height="60" viewBox="0 0 60 60" fill="none" xmlns="http://www.w3.org/2000/svg">
<path d="M0.000488281 30C0.000488281 13.4315 13.4319 0 30.0005 0C46.569 0 60.0005 13.4315 60.0005 30C60.0005 46.5685 46.569 60 30.0005 60C13.4319 60 0.000488281 46.5685 0.000488281 30Z" fill="url(#paint0_linear_240:7161)"/>
<path d="M20.0005 22H14.0005V38.5H20.0005V22Z" fill="white"/>
<path d="M42.5005 31H32.0005L28.8655 29.905L29.3605 28.495L32.0005 29.5H36.2305C37.2055 29.5 38.0005 28.705 38.0005 27.73C38.0005 26.995 37.5355 26.335 36.8455 26.065L25.9555 22H23.0005V35.53L33.5005 38.5L45.5155 34C45.5005 32.35 44.1655 31 42.5005 31Z" fill="white"/>
<defs>
<linearGradient id="paint0_linear_240:7161" x1="60.0005" y1="60" x2="5.01224" y2="-4.28684" gradientUnits="userSpaceOnUse">
<stop stop-color="#031B4B"/>
<stop offset="1" stop-color="#28437B"/>
</linearGradient>
</defs>
</svg>
